<mxfile host="app.diagrams.net" modified="2022-09-03T00:54:09.808Z" agent="5.0 (Windows NT 10.0; Win64; x64) AppleWebKit/537.36 (KHTML, like Gecko) Chrome/104.0.5112.102 Safari/537.36 Edg/104.0.1293.70" etag="JzZFOg8na77vQfRNwGM3" version="20.2.7" type="github">
  <diagram id="C5RBs43oDa-KdzZeNtuy" name="Page-1">
    <mxGraphModel dx="1422" dy="1939" grid="1" gridSize="10" guides="1" tooltips="1" connect="1" arrows="1" fold="1" page="1" pageScale="1" pageWidth="827" pageHeight="1169" math="0" shadow="0">
      <root>
        <mxCell id="WIyWlLk6GJQsqaUBKTNV-0" />
        <mxCell id="WIyWlLk6GJQsqaUBKTNV-1" parent="WIyWlLk6GJQsqaUBKTNV-0" />
        <mxCell id="-3-9wyXVmMevEzcIftEk-1" value="Service" style="swimlane;fontStyle=0;childLayout=stackLayout;horizontal=1;startSize=26;fillColor=#ffe6cc;horizontalStack=0;resizeParent=1;resizeParentMax=0;resizeLast=0;collapsible=1;marginBottom=0;strokeColor=#d79b00;" parent="WIyWlLk6GJQsqaUBKTNV-1" vertex="1">
          <mxGeometry x="225" y="70" width="140" height="48" as="geometry">
            <mxRectangle x="221" y="160" width="80" height="30" as="alternateBounds" />
          </mxGeometry>
        </mxCell>
        <mxCell id="-3-9wyXVmMevEzcIftEk-7" value="«interface»&lt;br&gt;&lt;b&gt;Repository&lt;/b&gt;" style="html=1;fillColor=#ffe6cc;strokeColor=#d79b00;" parent="WIyWlLk6GJQsqaUBKTNV-1" vertex="1">
          <mxGeometry x="240" y="180" width="110" height="50" as="geometry" />
        </mxCell>
        <mxCell id="-3-9wyXVmMevEzcIftEk-8" value="«interface»&lt;br&gt;&lt;b&gt;Factory&lt;/b&gt;" style="html=1;fillColor=#dae8fc;strokeColor=#6c8ebf;" parent="WIyWlLk6GJQsqaUBKTNV-1" vertex="1">
          <mxGeometry x="464" y="732" width="110" height="50" as="geometry" />
        </mxCell>
        <mxCell id="-3-9wyXVmMevEzcIftEk-10" value="Use" style="endArrow=open;endSize=12;dashed=1;html=1;rounded=0;exitX=0.5;exitY=1;exitDx=0;exitDy=0;entryX=0.5;entryY=0;entryDx=0;entryDy=0;" parent="WIyWlLk6GJQsqaUBKTNV-1" source="-3-9wyXVmMevEzcIftEk-1" target="-3-9wyXVmMevEzcIftEk-7" edge="1">
          <mxGeometry width="160" relative="1" as="geometry">
            <mxPoint x="304" y="370" as="sourcePoint" />
            <mxPoint x="450" y="652" as="targetPoint" />
          </mxGeometry>
        </mxCell>
        <mxCell id="-3-9wyXVmMevEzcIftEk-12" value="storage" style="shape=internalStorage;whiteSpace=wrap;html=1;backgroundOutline=1;" parent="WIyWlLk6GJQsqaUBKTNV-1" vertex="1">
          <mxGeometry x="284" y="1260" width="110" height="80" as="geometry" />
        </mxCell>
        <mxCell id="-3-9wyXVmMevEzcIftEk-16" value="return" style="html=1;verticalAlign=bottom;endArrow=open;dashed=1;endSize=8;rounded=0;exitX=0.75;exitY=0;exitDx=0;exitDy=0;entryX=0;entryY=0.75;entryDx=0;entryDy=0;" parent="WIyWlLk6GJQsqaUBKTNV-1" source="-3-9wyXVmMevEzcIftEk-25" target="ENKUjYYxHuYjzHQliVfy-12" edge="1">
          <mxGeometry relative="1" as="geometry">
            <mxPoint x="464" y="732" as="sourcePoint" />
            <mxPoint x="540" y="560" as="targetPoint" />
            <Array as="points">
              <mxPoint x="323" y="575" />
            </Array>
          </mxGeometry>
        </mxCell>
        <mxCell id="-3-9wyXVmMevEzcIftEk-17" value="create" style="html=1;verticalAlign=bottom;endArrow=open;dashed=1;endSize=8;rounded=0;entryX=0.5;entryY=1;entryDx=0;entryDy=0;" parent="WIyWlLk6GJQsqaUBKTNV-1" source="-3-9wyXVmMevEzcIftEk-26" edge="1" target="ENKUjYYxHuYjzHQliVfy-12">
          <mxGeometry x="-0.048" y="-29" relative="1" as="geometry">
            <mxPoint x="685" y="730" as="sourcePoint" />
            <mxPoint x="685" y="610" as="targetPoint" />
            <mxPoint as="offset" />
          </mxGeometry>
        </mxCell>
        <mxCell id="-3-9wyXVmMevEzcIftEk-22" value="Domain" style="html=1;fillColor=#fff2cc;strokeColor=#d6b656;" parent="WIyWlLk6GJQsqaUBKTNV-1" vertex="1">
          <mxGeometry x="40" y="1460" width="90" height="30" as="geometry" />
        </mxCell>
        <mxCell id="-3-9wyXVmMevEzcIftEk-23" value="Infrastructure (internal)" style="html=1;fillColor=#dae8fc;strokeColor=#6c8ebf;" parent="WIyWlLk6GJQsqaUBKTNV-1" vertex="1">
          <mxGeometry x="40" y="1500" width="130" height="30" as="geometry" />
        </mxCell>
        <mxCell id="-3-9wyXVmMevEzcIftEk-24" value="&lt;h1&gt;DDD Overview&lt;/h1&gt;&lt;p&gt;Dependencies according to Eric Evans (from the blue book)&lt;/p&gt;" style="text;html=1;strokeColor=none;fillColor=none;spacing=5;spacingTop=-20;whiteSpace=wrap;overflow=hidden;rounded=0;" parent="WIyWlLk6GJQsqaUBKTNV-1" vertex="1">
          <mxGeometry x="30" y="-80" width="390" height="80" as="geometry" />
        </mxCell>
        <mxCell id="-3-9wyXVmMevEzcIftEk-25" value="&lt;b&gt;Repository&lt;/b&gt;" style="html=1;fillColor=#1ba1e2;strokeColor=#006EAF;fontColor=#ffffff;" parent="WIyWlLk6GJQsqaUBKTNV-1" vertex="1">
          <mxGeometry x="240" y="732" width="110" height="50" as="geometry" />
        </mxCell>
        <mxCell id="-3-9wyXVmMevEzcIftEk-26" value="&lt;b&gt;Factory&lt;/b&gt;" style="html=1;fillColor=#dae8fc;strokeColor=#6c8ebf;" parent="WIyWlLk6GJQsqaUBKTNV-1" vertex="1">
          <mxGeometry x="654" y="732" width="110" height="50" as="geometry" />
        </mxCell>
        <mxCell id="-3-9wyXVmMevEzcIftEk-27" value="" style="endArrow=block;dashed=1;endFill=0;endSize=12;html=1;rounded=0;exitX=0.5;exitY=0;exitDx=0;exitDy=0;entryX=0.5;entryY=1;entryDx=0;entryDy=0;" parent="WIyWlLk6GJQsqaUBKTNV-1" source="-3-9wyXVmMevEzcIftEk-25" target="-3-9wyXVmMevEzcIftEk-7" edge="1">
          <mxGeometry width="160" relative="1" as="geometry">
            <mxPoint x="334" y="722" as="sourcePoint" />
            <mxPoint x="494" y="722" as="targetPoint" />
          </mxGeometry>
        </mxCell>
        <mxCell id="-3-9wyXVmMevEzcIftEk-28" value="" style="endArrow=block;dashed=1;endFill=0;endSize=12;html=1;rounded=0;exitX=0;exitY=0.5;exitDx=0;exitDy=0;entryX=1;entryY=0.5;entryDx=0;entryDy=0;" parent="WIyWlLk6GJQsqaUBKTNV-1" source="-3-9wyXVmMevEzcIftEk-26" target="-3-9wyXVmMevEzcIftEk-8" edge="1">
          <mxGeometry width="160" relative="1" as="geometry">
            <mxPoint x="334" y="722" as="sourcePoint" />
            <mxPoint x="494" y="722" as="targetPoint" />
            <Array as="points" />
          </mxGeometry>
        </mxCell>
        <mxCell id="-3-9wyXVmMevEzcIftEk-29" value="Use" style="endArrow=open;endSize=12;dashed=1;html=1;rounded=0;exitX=1;exitY=0.5;exitDx=0;exitDy=0;" parent="WIyWlLk6GJQsqaUBKTNV-1" source="-3-9wyXVmMevEzcIftEk-25" edge="1">
          <mxGeometry width="160" relative="1" as="geometry">
            <mxPoint x="334" y="572" as="sourcePoint" />
            <mxPoint x="464" y="757" as="targetPoint" />
          </mxGeometry>
        </mxCell>
        <mxCell id="-3-9wyXVmMevEzcIftEk-30" value="" style="endArrow=none;html=1;rounded=0;dashed=1;strokeColor=#7EA6E0;strokeWidth=2;dashPattern=1 1;" parent="WIyWlLk6GJQsqaUBKTNV-1" edge="1">
          <mxGeometry width="50" height="50" relative="1" as="geometry">
            <mxPoint x="41" y="690" as="sourcePoint" />
            <mxPoint x="997" y="690" as="targetPoint" />
          </mxGeometry>
        </mxCell>
        <mxCell id="-3-9wyXVmMevEzcIftEk-32" value="&lt;b&gt;Service&lt;/b&gt;" style="html=1;fillColor=#dae8fc;strokeColor=#6c8ebf;" parent="WIyWlLk6GJQsqaUBKTNV-1" vertex="1">
          <mxGeometry x="535" y="980" width="110" height="50" as="geometry" />
        </mxCell>
        <mxCell id="-3-9wyXVmMevEzcIftEk-34" value="Use" style="endArrow=open;endSize=12;dashed=1;html=1;rounded=0;entryX=0;entryY=0.5;entryDx=0;entryDy=0;exitX=0;exitY=0.25;exitDx=0;exitDy=0;" parent="WIyWlLk6GJQsqaUBKTNV-1" source="-3-9wyXVmMevEzcIftEk-25" target="-3-9wyXVmMevEzcIftEk-7" edge="1">
          <mxGeometry width="160" relative="1" as="geometry">
            <mxPoint x="180" y="720" as="sourcePoint" />
            <mxPoint x="510" y="767" as="targetPoint" />
            <Array as="points">
              <mxPoint x="200" y="745" />
              <mxPoint x="200" y="205" />
            </Array>
          </mxGeometry>
        </mxCell>
        <mxCell id="-3-9wyXVmMevEzcIftEk-35" value="Use" style="endArrow=open;endSize=12;dashed=1;html=1;rounded=0;exitX=0.25;exitY=1;exitDx=0;exitDy=0;entryX=0.5;entryY=1;entryDx=0;entryDy=0;" parent="WIyWlLk6GJQsqaUBKTNV-1" source="-3-9wyXVmMevEzcIftEk-26" target="-3-9wyXVmMevEzcIftEk-8" edge="1">
          <mxGeometry width="160" relative="1" as="geometry">
            <mxPoint x="824" y="791.5" as="sourcePoint" />
            <mxPoint x="574" y="700" as="targetPoint" />
            <Array as="points">
              <mxPoint x="682" y="820" />
              <mxPoint x="519" y="820" />
            </Array>
          </mxGeometry>
        </mxCell>
        <mxCell id="-3-9wyXVmMevEzcIftEk-36" value="&lt;h1&gt;Domaine&lt;/h1&gt;" style="text;html=1;strokeColor=none;fillColor=none;align=center;verticalAlign=middle;whiteSpace=wrap;rounded=0;rotation=-90;" parent="WIyWlLk6GJQsqaUBKTNV-1" vertex="1">
          <mxGeometry x="24" y="610" width="60" height="30" as="geometry" />
        </mxCell>
        <mxCell id="-3-9wyXVmMevEzcIftEk-37" value="&lt;h1&gt;Infrastructure&lt;/h1&gt;" style="text;html=1;strokeColor=none;fillColor=none;align=center;verticalAlign=middle;whiteSpace=wrap;rounded=0;rotation=-90;" parent="WIyWlLk6GJQsqaUBKTNV-1" vertex="1">
          <mxGeometry x="24" y="1060" width="60" height="30" as="geometry" />
        </mxCell>
        <mxCell id="-3-9wyXVmMevEzcIftEk-39" value="" style="endArrow=open;endFill=1;endSize=12;html=1;rounded=0;exitX=1;exitY=0.5;exitDx=0;exitDy=0;entryX=0.5;entryY=0;entryDx=0;entryDy=0;" parent="WIyWlLk6GJQsqaUBKTNV-1" source="-3-9wyXVmMevEzcIftEk-1" target="ENKUjYYxHuYjzHQliVfy-12" edge="1">
          <mxGeometry width="160" relative="1" as="geometry">
            <mxPoint x="414" y="440" as="sourcePoint" />
            <mxPoint x="574" y="440" as="targetPoint" />
            <Array as="points">
              <mxPoint x="710" y="94" />
            </Array>
          </mxGeometry>
        </mxCell>
        <mxCell id="-3-9wyXVmMevEzcIftEk-44" value="Use" style="endArrow=open;endSize=12;dashed=1;html=1;rounded=0;exitX=0.5;exitY=1;exitDx=0;exitDy=0;entryX=0.377;entryY=-0.03;entryDx=0;entryDy=0;entryPerimeter=0;" parent="WIyWlLk6GJQsqaUBKTNV-1" source="-3-9wyXVmMevEzcIftEk-25" target="ENKUjYYxHuYjzHQliVfy-30" edge="1">
          <mxGeometry width="160" relative="1" as="geometry">
            <mxPoint x="318.97" y="796" as="sourcePoint" />
            <mxPoint x="404.02" y="903.04" as="targetPoint" />
          </mxGeometry>
        </mxCell>
        <mxCell id="70DxIA_xlroN3nV1r1jk-2" value="" style="endArrow=classic;html=1;rounded=0;exitX=0;exitY=0.75;exitDx=0;exitDy=0;entryX=1;entryY=0.5;entryDx=0;entryDy=0;" parent="WIyWlLk6GJQsqaUBKTNV-1" source="-3-9wyXVmMevEzcIftEk-25" target="ENKUjYYxHuYjzHQliVfy-19" edge="1">
          <mxGeometry width="50" height="50" relative="1" as="geometry">
            <mxPoint x="394" y="910" as="sourcePoint" />
            <mxPoint x="191" y="850" as="targetPoint" />
          </mxGeometry>
        </mxCell>
        <mxCell id="70DxIA_xlroN3nV1r1jk-4" value="" style="endArrow=classic;html=1;rounded=0;entryX=0;entryY=0.5;entryDx=0;entryDy=0;" parent="WIyWlLk6GJQsqaUBKTNV-1" source="-3-9wyXVmMevEzcIftEk-32" target="ENKUjYYxHuYjzHQliVfy-20" edge="1">
          <mxGeometry width="50" height="50" relative="1" as="geometry">
            <mxPoint x="405" y="1000" as="sourcePoint" />
            <mxPoint x="671" y="1030" as="targetPoint" />
          </mxGeometry>
        </mxCell>
        <mxCell id="70DxIA_xlroN3nV1r1jk-5" value="Web API" style="shape=internalStorage;whiteSpace=wrap;html=1;backgroundOutline=1;" parent="WIyWlLk6GJQsqaUBKTNV-1" vertex="1">
          <mxGeometry x="524" y="1260" width="110" height="80" as="geometry" />
        </mxCell>
        <mxCell id="70DxIA_xlroN3nV1r1jk-6" value="Use" style="endArrow=open;endSize=12;dashed=1;html=1;rounded=0;entryX=0.5;entryY=0;entryDx=0;entryDy=0;" parent="WIyWlLk6GJQsqaUBKTNV-1" target="70DxIA_xlroN3nV1r1jk-5" edge="1">
          <mxGeometry width="160" relative="1" as="geometry">
            <mxPoint x="580" y="1030" as="sourcePoint" />
            <mxPoint x="544.0632911392404" y="900" as="targetPoint" />
          </mxGeometry>
        </mxCell>
        <mxCell id="ENKUjYYxHuYjzHQliVfy-0" value="&lt;b&gt;DB Entity&lt;/b&gt;" style="html=1;fillColor=#dae8fc;strokeColor=#6c8ebf;" parent="WIyWlLk6GJQsqaUBKTNV-1" vertex="1">
          <mxGeometry x="410" y="1060" width="110" height="50" as="geometry" />
        </mxCell>
        <mxCell id="ENKUjYYxHuYjzHQliVfy-1" value="create" style="html=1;verticalAlign=bottom;endArrow=open;dashed=1;endSize=8;rounded=0;entryX=0.5;entryY=0;entryDx=0;entryDy=0;exitX=1;exitY=0.5;exitDx=0;exitDy=0;" parent="WIyWlLk6GJQsqaUBKTNV-1" source="70DxIA_xlroN3nV1r1jk-0" target="ENKUjYYxHuYjzHQliVfy-0" edge="1">
          <mxGeometry relative="1" as="geometry">
            <mxPoint x="330" y="969" as="sourcePoint" />
            <mxPoint x="223.02999999999997" y="790" as="targetPoint" />
            <mxPoint as="offset" />
            <Array as="points">
              <mxPoint x="465" y="1015" />
            </Array>
          </mxGeometry>
        </mxCell>
        <mxCell id="ENKUjYYxHuYjzHQliVfy-2" value="&lt;b&gt;DTO&lt;/b&gt;" style="html=1;fillColor=#dae8fc;strokeColor=#6c8ebf;" parent="WIyWlLk6GJQsqaUBKTNV-1" vertex="1">
          <mxGeometry x="670" y="1060" width="110" height="50" as="geometry" />
        </mxCell>
        <mxCell id="ENKUjYYxHuYjzHQliVfy-3" value="create" style="html=1;verticalAlign=bottom;endArrow=open;dashed=1;endSize=8;rounded=0;exitX=1;exitY=0.5;exitDx=0;exitDy=0;" parent="WIyWlLk6GJQsqaUBKTNV-1" source="-3-9wyXVmMevEzcIftEk-32" edge="1">
          <mxGeometry x="-0.1538" y="5" relative="1" as="geometry">
            <mxPoint x="372.5" y="1030" as="sourcePoint" />
            <mxPoint x="720" y="1060" as="targetPoint" />
            <mxPoint as="offset" />
            <Array as="points">
              <mxPoint x="720" y="1005" />
            </Array>
          </mxGeometry>
        </mxCell>
        <mxCell id="ENKUjYYxHuYjzHQliVfy-4" value="Infrastructure" style="html=1;fillColor=#1ba1e2;strokeColor=#006EAF;fontColor=#ffffff;" parent="WIyWlLk6GJQsqaUBKTNV-1" vertex="1">
          <mxGeometry x="40" y="1540" width="90" height="30" as="geometry" />
        </mxCell>
        <mxCell id="ENKUjYYxHuYjzHQliVfy-5" value="" style="endArrow=none;html=1;rounded=0;fontColor=#000000;strokeColor=#7EA6E0;dashed=1;strokeWidth=2;dashPattern=1 1;" parent="WIyWlLk6GJQsqaUBKTNV-1" edge="1">
          <mxGeometry width="50" height="50" relative="1" as="geometry">
            <mxPoint x="44" y="260" as="sourcePoint" />
            <mxPoint x="1000" y="260" as="targetPoint" />
          </mxGeometry>
        </mxCell>
        <mxCell id="ENKUjYYxHuYjzHQliVfy-6" value="&lt;h1&gt;Application&lt;/h1&gt;" style="text;html=1;strokeColor=none;fillColor=none;align=center;verticalAlign=middle;whiteSpace=wrap;rounded=0;rotation=-90;" parent="WIyWlLk6GJQsqaUBKTNV-1" vertex="1">
          <mxGeometry x="24" y="160" width="60" height="30" as="geometry" />
        </mxCell>
        <mxCell id="ENKUjYYxHuYjzHQliVfy-7" value="Service" style="swimlane;fontStyle=0;childLayout=stackLayout;horizontal=1;startSize=26;fillColor=#fff2cc;horizontalStack=0;resizeParent=1;resizeParentMax=0;resizeLast=0;collapsible=1;marginBottom=0;strokeColor=#d6b656;" parent="WIyWlLk6GJQsqaUBKTNV-1" vertex="1">
          <mxGeometry x="330" y="330" width="140" height="48" as="geometry">
            <mxRectangle x="221" y="160" width="80" height="30" as="alternateBounds" />
          </mxGeometry>
        </mxCell>
        <mxCell id="ENKUjYYxHuYjzHQliVfy-9" value="Use" style="endArrow=open;endSize=12;dashed=1;html=1;rounded=0;exitX=0.5;exitY=1;exitDx=0;exitDy=0;entryX=0;entryY=0.25;entryDx=0;entryDy=0;" parent="WIyWlLk6GJQsqaUBKTNV-1" source="ENKUjYYxHuYjzHQliVfy-7" edge="1" target="ENKUjYYxHuYjzHQliVfy-12">
          <mxGeometry x="-0.3514" y="20" width="160" relative="1" as="geometry">
            <mxPoint x="305" y="328" as="sourcePoint" />
            <mxPoint x="510" y="490" as="targetPoint" />
            <Array as="points">
              <mxPoint x="400" y="485" />
            </Array>
            <mxPoint as="offset" />
          </mxGeometry>
        </mxCell>
        <mxCell id="ENKUjYYxHuYjzHQliVfy-10" value="Use" style="endArrow=open;endSize=12;dashed=1;html=1;rounded=0;entryX=0.5;entryY=0;entryDx=0;entryDy=0;exitX=1;exitY=0.75;exitDx=0;exitDy=0;" parent="WIyWlLk6GJQsqaUBKTNV-1" source="-3-9wyXVmMevEzcIftEk-1" target="ENKUjYYxHuYjzHQliVfy-7" edge="1">
          <mxGeometry x="-0.0811" y="20" width="160" relative="1" as="geometry">
            <mxPoint x="340" y="220" as="sourcePoint" />
            <mxPoint x="305" y="540" as="targetPoint" />
            <Array as="points">
              <mxPoint x="400" y="106" />
            </Array>
            <mxPoint as="offset" />
          </mxGeometry>
        </mxCell>
        <mxCell id="ENKUjYYxHuYjzHQliVfy-12" value="Model" style="swimlane;dashed=1;" parent="WIyWlLk6GJQsqaUBKTNV-1" vertex="1">
          <mxGeometry x="534" y="440" width="350" height="180" as="geometry">
            <mxRectangle x="510" y="410" width="80" height="30" as="alternateBounds" />
          </mxGeometry>
        </mxCell>
        <mxCell id="DfN52wyv_r_r57nIKshW-13" value="Value Object" style="html=1;fillColor=#fff2cc;strokeColor=#d6b656;" vertex="1" parent="ENKUjYYxHuYjzHQliVfy-12">
          <mxGeometry x="225" y="40" width="110" height="30" as="geometry" />
        </mxCell>
        <mxCell id="DfN52wyv_r_r57nIKshW-14" value="Entity" style="html=1;fillColor=#fff2cc;strokeColor=#d6b656;" vertex="1" parent="ENKUjYYxHuYjzHQliVfy-12">
          <mxGeometry x="25" y="40" width="110" height="30" as="geometry" />
        </mxCell>
        <mxCell id="DfN52wyv_r_r57nIKshW-15" value="Aggregate" style="html=1;fillColor=#fff2cc;strokeColor=#d6b656;" vertex="1" parent="ENKUjYYxHuYjzHQliVfy-12">
          <mxGeometry x="115" y="122.5" width="110" height="35" as="geometry" />
        </mxCell>
        <mxCell id="DfN52wyv_r_r57nIKshW-16" value="" style="endArrow=open;endFill=1;endSize=12;html=1;rounded=0;exitX=1;exitY=0.5;exitDx=0;exitDy=0;" edge="1" parent="ENKUjYYxHuYjzHQliVfy-12" source="DfN52wyv_r_r57nIKshW-15" target="DfN52wyv_r_r57nIKshW-13">
          <mxGeometry width="160" relative="1" as="geometry">
            <mxPoint x="-215" y="222.5" as="sourcePoint" />
            <mxPoint x="-55" y="222.5" as="targetPoint" />
            <Array as="points">
              <mxPoint x="280" y="140.5" />
            </Array>
          </mxGeometry>
        </mxCell>
        <mxCell id="DfN52wyv_r_r57nIKshW-17" value="" style="endArrow=open;endFill=1;endSize=12;html=1;rounded=0;exitX=1;exitY=0.5;exitDx=0;exitDy=0;entryX=0;entryY=0.5;entryDx=0;entryDy=0;" edge="1" parent="ENKUjYYxHuYjzHQliVfy-12" source="DfN52wyv_r_r57nIKshW-14" target="DfN52wyv_r_r57nIKshW-13">
          <mxGeometry width="160" relative="1" as="geometry">
            <mxPoint x="185" y="72.5" as="sourcePoint" />
            <mxPoint x="175" y="-17.5" as="targetPoint" />
            <Array as="points" />
          </mxGeometry>
        </mxCell>
        <mxCell id="DfN52wyv_r_r57nIKshW-19" value="" style="endArrow=open;endSize=12;startArrow=diamondThin;startSize=14;startFill=1;edgeStyle=orthogonalEdgeStyle;align=left;verticalAlign=bottom;rounded=0;exitX=0;exitY=0.5;exitDx=0;exitDy=0;html=1;entryX=0.5;entryY=1;entryDx=0;entryDy=0;" edge="1" parent="ENKUjYYxHuYjzHQliVfy-12" source="DfN52wyv_r_r57nIKshW-15" target="DfN52wyv_r_r57nIKshW-14">
          <mxGeometry x="-0.6049" y="33" relative="1" as="geometry">
            <mxPoint x="95" y="142.5" as="sourcePoint" />
            <mxPoint x="45" y="122.5" as="targetPoint" />
            <mxPoint as="offset" />
            <Array as="points">
              <mxPoint x="80" y="140.5" />
            </Array>
          </mxGeometry>
        </mxCell>
        <mxCell id="DfN52wyv_r_r57nIKshW-1" value="Validators" style="html=1;fillColor=#fff2cc;strokeColor=#d6b656;" vertex="1" parent="ENKUjYYxHuYjzHQliVfy-12">
          <mxGeometry x="115" y="80" width="110" height="30" as="geometry" />
        </mxCell>
        <mxCell id="DfN52wyv_r_r57nIKshW-23" value="" style="html=1;verticalAlign=bottom;endArrow=open;dashed=1;endSize=8;rounded=0;entryX=1;entryY=0.5;entryDx=0;entryDy=0;strokeColor=#000000;exitX=0.25;exitY=1;exitDx=0;exitDy=0;" edge="1" parent="ENKUjYYxHuYjzHQliVfy-12" source="DfN52wyv_r_r57nIKshW-13" target="DfN52wyv_r_r57nIKshW-1">
          <mxGeometry x="-0.048" y="-29" relative="1" as="geometry">
            <mxPoint x="446" y="72" as="sourcePoint" />
            <mxPoint x="446" y="-40" as="targetPoint" />
            <mxPoint as="offset" />
          </mxGeometry>
        </mxCell>
        <mxCell id="DfN52wyv_r_r57nIKshW-24" value="" style="html=1;verticalAlign=bottom;endArrow=open;dashed=1;endSize=8;rounded=0;entryX=1;entryY=0.75;entryDx=0;entryDy=0;strokeColor=#000000;exitX=1;exitY=0.25;exitDx=0;exitDy=0;" edge="1" parent="ENKUjYYxHuYjzHQliVfy-12" source="DfN52wyv_r_r57nIKshW-15" target="DfN52wyv_r_r57nIKshW-1">
          <mxGeometry x="-0.048" y="-29" relative="1" as="geometry">
            <mxPoint x="262.5" y="80" as="sourcePoint" />
            <mxPoint x="235" y="105" as="targetPoint" />
            <mxPoint as="offset" />
            <Array as="points">
              <mxPoint x="256" y="131" />
              <mxPoint x="256" y="103" />
            </Array>
          </mxGeometry>
        </mxCell>
        <mxCell id="DfN52wyv_r_r57nIKshW-25" value="" style="html=1;verticalAlign=bottom;endArrow=open;dashed=1;endSize=8;rounded=0;entryX=0.5;entryY=0;entryDx=0;entryDy=0;strokeColor=#000000;exitX=1;exitY=0.75;exitDx=0;exitDy=0;" edge="1" parent="ENKUjYYxHuYjzHQliVfy-12" source="DfN52wyv_r_r57nIKshW-14" target="DfN52wyv_r_r57nIKshW-1">
          <mxGeometry x="-0.048" y="-29" relative="1" as="geometry">
            <mxPoint x="262.5" y="80" as="sourcePoint" />
            <mxPoint x="235" y="105" as="targetPoint" />
            <mxPoint as="offset" />
          </mxGeometry>
        </mxCell>
        <mxCell id="ENKUjYYxHuYjzHQliVfy-18" value="Application" style="html=1;fillColor=#ffe6cc;strokeColor=#d79b00;" parent="WIyWlLk6GJQsqaUBKTNV-1" vertex="1">
          <mxGeometry x="40" y="1420" width="90" height="30" as="geometry" />
        </mxCell>
        <mxCell id="ENKUjYYxHuYjzHQliVfy-19" value="&lt;span style=&quot;&quot;&gt;memory&lt;/span&gt;&lt;br style=&quot;&quot;&gt;&lt;span style=&quot;&quot;&gt;entity cache&lt;/span&gt;" style="html=1;fillColor=#dae8fc;strokeColor=#6c8ebf;" parent="WIyWlLk6GJQsqaUBKTNV-1" vertex="1">
          <mxGeometry x="50" y="760" width="110" height="50" as="geometry" />
        </mxCell>
        <mxCell id="ENKUjYYxHuYjzHQliVfy-20" value="&lt;span style=&quot;&quot;&gt;memory&lt;/span&gt;&lt;br style=&quot;&quot;&gt;&lt;span style=&quot;&quot;&gt;query cache&lt;/span&gt;" style="html=1;fillColor=#dae8fc;strokeColor=#6c8ebf;" parent="WIyWlLk6GJQsqaUBKTNV-1" vertex="1">
          <mxGeometry x="670" y="900" width="110" height="50" as="geometry" />
        </mxCell>
        <mxCell id="ENKUjYYxHuYjzHQliVfy-24" value="" style="ellipse;shape=cloud;whiteSpace=wrap;html=1;fillColor=none;dashed=1;" parent="WIyWlLk6GJQsqaUBKTNV-1" vertex="1">
          <mxGeometry x="200" y="1190" width="250" height="210" as="geometry" />
        </mxCell>
        <mxCell id="ENKUjYYxHuYjzHQliVfy-25" value="" style="ellipse;shape=cloud;whiteSpace=wrap;html=1;fillColor=none;dashed=1;" parent="WIyWlLk6GJQsqaUBKTNV-1" vertex="1">
          <mxGeometry x="470" y="1190" width="250" height="210" as="geometry" />
        </mxCell>
        <mxCell id="ENKUjYYxHuYjzHQliVfy-26" value="" style="endArrow=none;html=1;rounded=0;dashed=1;strokeColor=#7EA6E0;strokeWidth=2;dashPattern=1 1;" parent="WIyWlLk6GJQsqaUBKTNV-1" edge="1">
          <mxGeometry width="50" height="50" relative="1" as="geometry">
            <mxPoint x="44" y="1168" as="sourcePoint" />
            <mxPoint x="1000" y="1168" as="targetPoint" />
          </mxGeometry>
        </mxCell>
        <mxCell id="ENKUjYYxHuYjzHQliVfy-27" value="Contexte" style="text;html=1;strokeColor=none;fillColor=none;align=center;verticalAlign=middle;whiteSpace=wrap;rounded=0;dashed=1;" parent="WIyWlLk6GJQsqaUBKTNV-1" vertex="1">
          <mxGeometry x="210" y="1200" width="60" height="30" as="geometry" />
        </mxCell>
        <mxCell id="ENKUjYYxHuYjzHQliVfy-28" value="Contexte" style="text;html=1;strokeColor=none;fillColor=none;align=center;verticalAlign=middle;whiteSpace=wrap;rounded=0;dashed=1;" parent="WIyWlLk6GJQsqaUBKTNV-1" vertex="1">
          <mxGeometry x="640" y="1200" width="60" height="30" as="geometry" />
        </mxCell>
        <mxCell id="70DxIA_xlroN3nV1r1jk-0" value="&lt;b&gt;DB Repository&lt;/b&gt;" style="html=1;fillColor=#dae8fc;strokeColor=#6c8ebf;" parent="WIyWlLk6GJQsqaUBKTNV-1" vertex="1">
          <mxGeometry x="280" y="990" width="110" height="50" as="geometry" />
        </mxCell>
        <mxCell id="ENKUjYYxHuYjzHQliVfy-30" value="Anti Corruption Layer" style="swimlane;dashed=1;" parent="WIyWlLk6GJQsqaUBKTNV-1" vertex="1">
          <mxGeometry x="164" y="840" width="350" height="100" as="geometry" />
        </mxCell>
        <mxCell id="ENKUjYYxHuYjzHQliVfy-22" value="translators" style="html=1;fillColor=#dae8fc;strokeColor=#6c8ebf;" parent="ENKUjYYxHuYjzHQliVfy-30" vertex="1">
          <mxGeometry x="40" y="50" width="110" height="30" as="geometry" />
        </mxCell>
        <mxCell id="ENKUjYYxHuYjzHQliVfy-32" value="Coordinator" style="html=1;fillColor=#dae8fc;strokeColor=#6c8ebf;" parent="ENKUjYYxHuYjzHQliVfy-30" vertex="1">
          <mxGeometry x="200" y="50" width="110" height="30" as="geometry" />
        </mxCell>
        <mxCell id="DfN52wyv_r_r57nIKshW-0" value="" style="endArrow=classic;html=1;rounded=0;entryX=1;entryY=0.5;entryDx=0;entryDy=0;exitX=0;exitY=0.5;exitDx=0;exitDy=0;" edge="1" parent="ENKUjYYxHuYjzHQliVfy-30" source="ENKUjYYxHuYjzHQliVfy-32" target="ENKUjYYxHuYjzHQliVfy-22">
          <mxGeometry width="50" height="50" relative="1" as="geometry">
            <mxPoint x="420" y="290" as="sourcePoint" />
            <mxPoint x="470" y="240" as="targetPoint" />
          </mxGeometry>
        </mxCell>
        <mxCell id="ENKUjYYxHuYjzHQliVfy-33" value="Use" style="endArrow=open;endSize=12;dashed=1;html=1;rounded=0;exitX=0.5;exitY=1;exitDx=0;exitDy=0;" parent="WIyWlLk6GJQsqaUBKTNV-1" source="70DxIA_xlroN3nV1r1jk-0" edge="1">
          <mxGeometry width="160" relative="1" as="geometry">
            <mxPoint x="335.5" y="1030" as="sourcePoint" />
            <mxPoint x="336" y="1260" as="targetPoint" />
          </mxGeometry>
        </mxCell>
        <mxCell id="ENKUjYYxHuYjzHQliVfy-34" value="Use" style="endArrow=open;endSize=12;dashed=1;html=1;rounded=0;entryX=0.5;entryY=0;entryDx=0;entryDy=0;exitX=0.25;exitY=1;exitDx=0;exitDy=0;" parent="WIyWlLk6GJQsqaUBKTNV-1" target="70DxIA_xlroN3nV1r1jk-0" edge="1" source="ENKUjYYxHuYjzHQliVfy-32">
          <mxGeometry width="160" relative="1" as="geometry">
            <mxPoint x="335" y="940" as="sourcePoint" />
            <mxPoint x="474" y="767" as="targetPoint" />
          </mxGeometry>
        </mxCell>
        <mxCell id="ENKUjYYxHuYjzHQliVfy-35" value="Use" style="endArrow=open;endSize=12;dashed=1;html=1;rounded=0;entryX=0.5;entryY=0;entryDx=0;entryDy=0;exitX=0.75;exitY=1;exitDx=0;exitDy=0;" parent="WIyWlLk6GJQsqaUBKTNV-1" target="-3-9wyXVmMevEzcIftEk-32" edge="1" source="ENKUjYYxHuYjzHQliVfy-32">
          <mxGeometry x="0.229" y="18" width="160" relative="1" as="geometry">
            <mxPoint x="480" y="940" as="sourcePoint" />
            <mxPoint x="345" y="1000" as="targetPoint" />
            <mxPoint as="offset" />
          </mxGeometry>
        </mxCell>
        <mxCell id="DfN52wyv_r_r57nIKshW-20" value="" style="ellipse;whiteSpace=wrap;html=1;fillColor=none;strokeColor=#FF4E33;" vertex="1" parent="WIyWlLk6GJQsqaUBKTNV-1">
          <mxGeometry x="440" y="702" width="370" height="128" as="geometry" />
        </mxCell>
        <mxCell id="DfN52wyv_r_r57nIKshW-21" value="" style="endArrow=classic;html=1;rounded=0;exitX=0.33;exitY=0.992;exitDx=0;exitDy=0;exitPerimeter=0;entryX=1;entryY=0;entryDx=0;entryDy=0;strokeColor=#FF0000;" edge="1" parent="WIyWlLk6GJQsqaUBKTNV-1" source="DfN52wyv_r_r57nIKshW-20" target="ENKUjYYxHuYjzHQliVfy-32">
          <mxGeometry width="50" height="50" relative="1" as="geometry">
            <mxPoint x="584" y="920" as="sourcePoint" />
            <mxPoint x="634" y="870" as="targetPoint" />
          </mxGeometry>
        </mxCell>
        <mxCell id="DfN52wyv_r_r57nIKshW-22" value="?" style="text;html=1;strokeColor=none;fillColor=none;align=center;verticalAlign=middle;whiteSpace=wrap;rounded=0;fontColor=#FF0F0F;fontStyle=1;fontSize=18;" vertex="1" parent="WIyWlLk6GJQsqaUBKTNV-1">
          <mxGeometry x="524" y="840" width="60" height="30" as="geometry" />
        </mxCell>
        <mxCell id="DfN52wyv_r_r57nIKshW-26" value="?" style="text;html=1;strokeColor=none;fillColor=none;align=center;verticalAlign=middle;whiteSpace=wrap;rounded=0;fontColor=#FF0F0F;fontStyle=1;fontSize=18;" vertex="1" parent="WIyWlLk6GJQsqaUBKTNV-1">
          <mxGeometry x="150" y="450" width="60" height="30" as="geometry" />
        </mxCell>
        <mxCell id="DfN52wyv_r_r57nIKshW-27" value="?" style="text;html=1;strokeColor=none;fillColor=none;align=center;verticalAlign=middle;whiteSpace=wrap;rounded=0;fontColor=#FF0F0F;fontStyle=1;fontSize=18;" vertex="1" parent="WIyWlLk6GJQsqaUBKTNV-1">
          <mxGeometry x="585" y="790" width="60" height="30" as="geometry" />
        </mxCell>
      </root>
    </mxGraphModel>
  </diagram>
</mxfile>
